<mxfile host="app.diagrams.net" modified="2020-12-08T16:09:43.097Z" agent="5.0 (Windows NT 10.0; Win64; x64) AppleWebKit/537.36 (KHTML, like Gecko) Chrome/86.0.4240.75 Safari/537.36" etag="mobvoSRyHIklF7RKW-3i" version="13.10.1" type="github">
  <diagram id="JtptpxlYa6OB3llsEzji" name="Page-1">
    <mxGraphModel dx="868" dy="1619" grid="1" gridSize="10" guides="1" tooltips="1" connect="1" arrows="1" fold="1" page="1" pageScale="1" pageWidth="827" pageHeight="1169" math="0" shadow="0">
      <root>
        <mxCell id="0" />
        <mxCell id="1" parent="0" />
        <mxCell id="8efc-KcHBeF5qyLbA9xW-1" style="edgeStyle=orthogonalEdgeStyle;rounded=0;sketch=1;orthogonalLoop=1;jettySize=auto;html=1;exitX=1;exitY=0.25;exitDx=0;exitDy=0;entryX=0;entryY=0.25;entryDx=0;entryDy=0;" edge="1" parent="1" source="8efc-KcHBeF5qyLbA9xW-2" target="8efc-KcHBeF5qyLbA9xW-14">
          <mxGeometry relative="1" as="geometry" />
        </mxCell>
        <mxCell id="8efc-KcHBeF5qyLbA9xW-2" value="" style="rounded=1;whiteSpace=wrap;html=1;sketch=1;" vertex="1" parent="1">
          <mxGeometry x="61" y="339.5" width="160" height="260" as="geometry" />
        </mxCell>
        <mxCell id="8efc-KcHBeF5qyLbA9xW-3" value="" style="edgeStyle=orthogonalEdgeStyle;rounded=0;orthogonalLoop=1;jettySize=auto;html=1;sketch=1;" edge="1" parent="1" source="8efc-KcHBeF5qyLbA9xW-4" target="8efc-KcHBeF5qyLbA9xW-8">
          <mxGeometry relative="1" as="geometry" />
        </mxCell>
        <mxCell id="8efc-KcHBeF5qyLbA9xW-4" value="最小记录" style="rounded=1;whiteSpace=wrap;html=1;sketch=1;fillColor=#f5f5f5;strokeColor=#666666;fontColor=#333333;" vertex="1" parent="1">
          <mxGeometry x="86" y="354.5" width="110" height="30" as="geometry" />
        </mxCell>
        <mxCell id="8efc-KcHBeF5qyLbA9xW-5" value="" style="edgeStyle=orthogonalEdgeStyle;rounded=0;orthogonalLoop=1;jettySize=auto;html=1;sketch=1;" edge="1" parent="1" source="8efc-KcHBeF5qyLbA9xW-6" target="8efc-KcHBeF5qyLbA9xW-11">
          <mxGeometry relative="1" as="geometry" />
        </mxCell>
        <mxCell id="8efc-KcHBeF5qyLbA9xW-6" value="3 b 9" style="rounded=1;whiteSpace=wrap;html=1;sketch=1;fillColor=#dae8fc;strokeColor=#6c8ebf;" vertex="1" parent="1">
          <mxGeometry x="86" y="504.5" width="110" height="30" as="geometry" />
        </mxCell>
        <mxCell id="8efc-KcHBeF5qyLbA9xW-7" value="" style="edgeStyle=orthogonalEdgeStyle;rounded=0;orthogonalLoop=1;jettySize=auto;html=1;sketch=1;" edge="1" parent="1" source="8efc-KcHBeF5qyLbA9xW-8" target="8efc-KcHBeF5qyLbA9xW-10">
          <mxGeometry relative="1" as="geometry" />
        </mxCell>
        <mxCell id="8efc-KcHBeF5qyLbA9xW-8" value="1 a 10&amp;nbsp;" style="rounded=1;whiteSpace=wrap;html=1;sketch=1;fillColor=#dae8fc;strokeColor=#6c8ebf;" vertex="1" parent="1">
          <mxGeometry x="86" y="404.5" width="110" height="30" as="geometry" />
        </mxCell>
        <mxCell id="8efc-KcHBeF5qyLbA9xW-9" value="" style="edgeStyle=orthogonalEdgeStyle;rounded=0;orthogonalLoop=1;jettySize=auto;html=1;sketch=1;" edge="1" parent="1" source="8efc-KcHBeF5qyLbA9xW-10" target="8efc-KcHBeF5qyLbA9xW-6">
          <mxGeometry relative="1" as="geometry" />
        </mxCell>
        <mxCell id="8efc-KcHBeF5qyLbA9xW-10" value="2 c 12" style="rounded=1;whiteSpace=wrap;html=1;sketch=1;fillColor=#dae8fc;strokeColor=#6c8ebf;" vertex="1" parent="1">
          <mxGeometry x="86" y="454.5" width="110" height="30" as="geometry" />
        </mxCell>
        <mxCell id="8efc-KcHBeF5qyLbA9xW-11" value="最大记录" style="rounded=1;whiteSpace=wrap;html=1;sketch=1;fillColor=#f5f5f5;strokeColor=#666666;fontColor=#333333;" vertex="1" parent="1">
          <mxGeometry x="86" y="554" width="110" height="30" as="geometry" />
        </mxCell>
        <mxCell id="8efc-KcHBeF5qyLbA9xW-12" style="edgeStyle=orthogonalEdgeStyle;rounded=0;sketch=1;orthogonalLoop=1;jettySize=auto;html=1;exitX=1;exitY=0.25;exitDx=0;exitDy=0;entryX=0;entryY=0.25;entryDx=0;entryDy=0;" edge="1" parent="1" source="8efc-KcHBeF5qyLbA9xW-14" target="8efc-KcHBeF5qyLbA9xW-25">
          <mxGeometry relative="1" as="geometry" />
        </mxCell>
        <mxCell id="8efc-KcHBeF5qyLbA9xW-13" style="edgeStyle=orthogonalEdgeStyle;rounded=0;sketch=1;orthogonalLoop=1;jettySize=auto;html=1;exitX=0;exitY=0.75;exitDx=0;exitDy=0;entryX=1;entryY=0.75;entryDx=0;entryDy=0;" edge="1" parent="1" source="8efc-KcHBeF5qyLbA9xW-14" target="8efc-KcHBeF5qyLbA9xW-2">
          <mxGeometry relative="1" as="geometry" />
        </mxCell>
        <mxCell id="8efc-KcHBeF5qyLbA9xW-14" value="" style="rounded=1;whiteSpace=wrap;html=1;sketch=1;" vertex="1" parent="1">
          <mxGeometry x="310" y="339.5" width="160" height="260" as="geometry" />
        </mxCell>
        <mxCell id="8efc-KcHBeF5qyLbA9xW-15" value="" style="edgeStyle=orthogonalEdgeStyle;rounded=0;orthogonalLoop=1;jettySize=auto;html=1;sketch=1;" edge="1" parent="1" source="8efc-KcHBeF5qyLbA9xW-16" target="8efc-KcHBeF5qyLbA9xW-20">
          <mxGeometry relative="1" as="geometry" />
        </mxCell>
        <mxCell id="8efc-KcHBeF5qyLbA9xW-16" value="最小记录" style="rounded=1;whiteSpace=wrap;html=1;sketch=1;fillColor=#f5f5f5;strokeColor=#666666;fontColor=#333333;" vertex="1" parent="1">
          <mxGeometry x="335" y="355" width="110" height="30" as="geometry" />
        </mxCell>
        <mxCell id="8efc-KcHBeF5qyLbA9xW-17" value="" style="edgeStyle=orthogonalEdgeStyle;rounded=0;orthogonalLoop=1;jettySize=auto;html=1;sketch=1;" edge="1" parent="1" source="8efc-KcHBeF5qyLbA9xW-18" target="8efc-KcHBeF5qyLbA9xW-23">
          <mxGeometry relative="1" as="geometry" />
        </mxCell>
        <mxCell id="8efc-KcHBeF5qyLbA9xW-18" value="6 l 13" style="rounded=1;whiteSpace=wrap;html=1;sketch=1;fillColor=#dae8fc;strokeColor=#6c8ebf;" vertex="1" parent="1">
          <mxGeometry x="335" y="505" width="110" height="30" as="geometry" />
        </mxCell>
        <mxCell id="8efc-KcHBeF5qyLbA9xW-19" value="" style="edgeStyle=orthogonalEdgeStyle;rounded=0;orthogonalLoop=1;jettySize=auto;html=1;sketch=1;" edge="1" parent="1" source="8efc-KcHBeF5qyLbA9xW-20" target="8efc-KcHBeF5qyLbA9xW-22">
          <mxGeometry relative="1" as="geometry" />
        </mxCell>
        <mxCell id="8efc-KcHBeF5qyLbA9xW-20" value="4 d 15" style="rounded=1;whiteSpace=wrap;html=1;sketch=1;fillColor=#dae8fc;strokeColor=#6c8ebf;" vertex="1" parent="1">
          <mxGeometry x="335" y="405" width="110" height="30" as="geometry" />
        </mxCell>
        <mxCell id="8efc-KcHBeF5qyLbA9xW-21" value="" style="edgeStyle=orthogonalEdgeStyle;rounded=0;orthogonalLoop=1;jettySize=auto;html=1;sketch=1;" edge="1" parent="1" source="8efc-KcHBeF5qyLbA9xW-22" target="8efc-KcHBeF5qyLbA9xW-18">
          <mxGeometry relative="1" as="geometry" />
        </mxCell>
        <mxCell id="8efc-KcHBeF5qyLbA9xW-22" value="5 h 17" style="rounded=1;whiteSpace=wrap;html=1;sketch=1;fillColor=#dae8fc;strokeColor=#6c8ebf;" vertex="1" parent="1">
          <mxGeometry x="335" y="455" width="110" height="30" as="geometry" />
        </mxCell>
        <mxCell id="8efc-KcHBeF5qyLbA9xW-23" value="最大记录" style="rounded=1;whiteSpace=wrap;html=1;sketch=1;fillColor=#f5f5f5;strokeColor=#666666;fontColor=#333333;" vertex="1" parent="1">
          <mxGeometry x="335" y="554.5" width="110" height="30" as="geometry" />
        </mxCell>
        <mxCell id="8efc-KcHBeF5qyLbA9xW-24" style="edgeStyle=orthogonalEdgeStyle;rounded=0;sketch=1;orthogonalLoop=1;jettySize=auto;html=1;exitX=0;exitY=0.75;exitDx=0;exitDy=0;entryX=1;entryY=0.75;entryDx=0;entryDy=0;" edge="1" parent="1" source="8efc-KcHBeF5qyLbA9xW-25" target="8efc-KcHBeF5qyLbA9xW-14">
          <mxGeometry relative="1" as="geometry" />
        </mxCell>
        <mxCell id="8efc-KcHBeF5qyLbA9xW-25" value="" style="rounded=1;whiteSpace=wrap;html=1;sketch=1;" vertex="1" parent="1">
          <mxGeometry x="560" y="339.5" width="160" height="260" as="geometry" />
        </mxCell>
        <mxCell id="8efc-KcHBeF5qyLbA9xW-26" value="" style="edgeStyle=orthogonalEdgeStyle;rounded=0;orthogonalLoop=1;jettySize=auto;html=1;sketch=1;" edge="1" parent="1" source="8efc-KcHBeF5qyLbA9xW-27" target="8efc-KcHBeF5qyLbA9xW-29">
          <mxGeometry relative="1" as="geometry" />
        </mxCell>
        <mxCell id="8efc-KcHBeF5qyLbA9xW-27" value="最小记录" style="rounded=1;whiteSpace=wrap;html=1;sketch=1;fillColor=#f5f5f5;strokeColor=#666666;fontColor=#333333;" vertex="1" parent="1">
          <mxGeometry x="585" y="374" width="110" height="30" as="geometry" />
        </mxCell>
        <mxCell id="8efc-KcHBeF5qyLbA9xW-28" value="" style="edgeStyle=orthogonalEdgeStyle;rounded=0;orthogonalLoop=1;jettySize=auto;html=1;sketch=1;" edge="1" parent="1" source="8efc-KcHBeF5qyLbA9xW-29" target="8efc-KcHBeF5qyLbA9xW-31">
          <mxGeometry relative="1" as="geometry" />
        </mxCell>
        <mxCell id="8efc-KcHBeF5qyLbA9xW-29" value="7 k 12" style="rounded=1;whiteSpace=wrap;html=1;sketch=1;fillColor=#dae8fc;strokeColor=#6c8ebf;" vertex="1" parent="1">
          <mxGeometry x="585" y="424" width="110" height="30" as="geometry" />
        </mxCell>
        <mxCell id="8efc-KcHBeF5qyLbA9xW-30" value="" style="edgeStyle=orthogonalEdgeStyle;rounded=0;orthogonalLoop=1;jettySize=auto;html=1;sketch=1;" edge="1" parent="1" source="8efc-KcHBeF5qyLbA9xW-31">
          <mxGeometry relative="1" as="geometry">
            <mxPoint x="640" y="524" as="targetPoint" />
          </mxGeometry>
        </mxCell>
        <mxCell id="8efc-KcHBeF5qyLbA9xW-31" value="8 x 9" style="rounded=1;whiteSpace=wrap;html=1;sketch=1;fillColor=#dae8fc;strokeColor=#6c8ebf;" vertex="1" parent="1">
          <mxGeometry x="585" y="474" width="110" height="30" as="geometry" />
        </mxCell>
        <mxCell id="8efc-KcHBeF5qyLbA9xW-32" value="最大记录" style="rounded=1;whiteSpace=wrap;html=1;sketch=1;fillColor=#f5f5f5;strokeColor=#666666;fontColor=#333333;" vertex="1" parent="1">
          <mxGeometry x="584" y="529.5" width="110" height="30" as="geometry" />
        </mxCell>
        <mxCell id="8efc-KcHBeF5qyLbA9xW-33" value="页1" style="text;html=1;strokeColor=none;fillColor=none;align=center;verticalAlign=middle;whiteSpace=wrap;rounded=0;sketch=1;" vertex="1" parent="1">
          <mxGeometry x="121" y="300" width="40" height="20" as="geometry" />
        </mxCell>
        <mxCell id="8efc-KcHBeF5qyLbA9xW-34" value="页2" style="text;html=1;strokeColor=none;fillColor=none;align=center;verticalAlign=middle;whiteSpace=wrap;rounded=0;sketch=1;" vertex="1" parent="1">
          <mxGeometry x="370" y="300" width="40" height="20" as="geometry" />
        </mxCell>
        <mxCell id="8efc-KcHBeF5qyLbA9xW-35" value="页3" style="text;html=1;strokeColor=none;fillColor=none;align=center;verticalAlign=middle;whiteSpace=wrap;rounded=0;sketch=1;" vertex="1" parent="1">
          <mxGeometry x="619" y="300" width="40" height="20" as="geometry" />
        </mxCell>
        <mxCell id="8efc-KcHBeF5qyLbA9xW-57" value="" style="rounded=1;whiteSpace=wrap;html=1;sketch=1;" vertex="1" parent="1">
          <mxGeometry x="310" y="-20.5" width="160" height="260" as="geometry" />
        </mxCell>
        <mxCell id="8efc-KcHBeF5qyLbA9xW-58" value="" style="edgeStyle=orthogonalEdgeStyle;rounded=0;orthogonalLoop=1;jettySize=auto;html=1;sketch=1;" edge="1" parent="1" source="8efc-KcHBeF5qyLbA9xW-59" target="8efc-KcHBeF5qyLbA9xW-63">
          <mxGeometry relative="1" as="geometry" />
        </mxCell>
        <mxCell id="8efc-KcHBeF5qyLbA9xW-59" value="最小记录" style="rounded=1;whiteSpace=wrap;html=1;sketch=1;fillColor=#f5f5f5;strokeColor=#666666;fontColor=#333333;" vertex="1" parent="1">
          <mxGeometry x="335" y="-5" width="110" height="30" as="geometry" />
        </mxCell>
        <mxCell id="8efc-KcHBeF5qyLbA9xW-60" value="" style="edgeStyle=orthogonalEdgeStyle;rounded=0;orthogonalLoop=1;jettySize=auto;html=1;sketch=1;" edge="1" parent="1" source="8efc-KcHBeF5qyLbA9xW-61" target="8efc-KcHBeF5qyLbA9xW-66">
          <mxGeometry relative="1" as="geometry" />
        </mxCell>
        <mxCell id="8efc-KcHBeF5qyLbA9xW-70" style="edgeStyle=orthogonalEdgeStyle;rounded=0;orthogonalLoop=1;jettySize=auto;html=1;exitX=1;exitY=0.5;exitDx=0;exitDy=0;entryX=0.5;entryY=0;entryDx=0;entryDy=0;sketch=1;" edge="1" parent="1" source="8efc-KcHBeF5qyLbA9xW-61" target="8efc-KcHBeF5qyLbA9xW-25">
          <mxGeometry relative="1" as="geometry" />
        </mxCell>
        <mxCell id="8efc-KcHBeF5qyLbA9xW-61" value="7 3" style="rounded=1;whiteSpace=wrap;html=1;sketch=1;fillColor=#dae8fc;strokeColor=#6c8ebf;" vertex="1" parent="1">
          <mxGeometry x="335" y="145" width="110" height="30" as="geometry" />
        </mxCell>
        <mxCell id="8efc-KcHBeF5qyLbA9xW-62" value="" style="edgeStyle=orthogonalEdgeStyle;rounded=0;orthogonalLoop=1;jettySize=auto;html=1;sketch=1;" edge="1" parent="1" source="8efc-KcHBeF5qyLbA9xW-63" target="8efc-KcHBeF5qyLbA9xW-65">
          <mxGeometry relative="1" as="geometry" />
        </mxCell>
        <mxCell id="8efc-KcHBeF5qyLbA9xW-68" style="edgeStyle=orthogonalEdgeStyle;rounded=0;orthogonalLoop=1;jettySize=auto;html=1;exitX=0;exitY=0.5;exitDx=0;exitDy=0;entryX=0.5;entryY=0;entryDx=0;entryDy=0;sketch=1;" edge="1" parent="1" source="8efc-KcHBeF5qyLbA9xW-63" target="8efc-KcHBeF5qyLbA9xW-2">
          <mxGeometry relative="1" as="geometry" />
        </mxCell>
        <mxCell id="8efc-KcHBeF5qyLbA9xW-63" value="1 1" style="rounded=1;whiteSpace=wrap;html=1;sketch=1;fillColor=#dae8fc;strokeColor=#6c8ebf;" vertex="1" parent="1">
          <mxGeometry x="335" y="45" width="110" height="30" as="geometry" />
        </mxCell>
        <mxCell id="8efc-KcHBeF5qyLbA9xW-64" value="" style="edgeStyle=orthogonalEdgeStyle;rounded=0;orthogonalLoop=1;jettySize=auto;html=1;sketch=1;" edge="1" parent="1" source="8efc-KcHBeF5qyLbA9xW-65" target="8efc-KcHBeF5qyLbA9xW-61">
          <mxGeometry relative="1" as="geometry" />
        </mxCell>
        <mxCell id="8efc-KcHBeF5qyLbA9xW-69" style="edgeStyle=orthogonalEdgeStyle;rounded=0;orthogonalLoop=1;jettySize=auto;html=1;exitX=0;exitY=0.5;exitDx=0;exitDy=0;entryX=0.5;entryY=0;entryDx=0;entryDy=0;sketch=1;" edge="1" parent="1" source="8efc-KcHBeF5qyLbA9xW-65" target="8efc-KcHBeF5qyLbA9xW-14">
          <mxGeometry relative="1" as="geometry">
            <Array as="points">
              <mxPoint x="230" y="110" />
              <mxPoint x="230" y="280" />
              <mxPoint x="390" y="280" />
            </Array>
          </mxGeometry>
        </mxCell>
        <mxCell id="8efc-KcHBeF5qyLbA9xW-65" value="4 2" style="rounded=1;whiteSpace=wrap;html=1;sketch=1;fillColor=#dae8fc;strokeColor=#6c8ebf;" vertex="1" parent="1">
          <mxGeometry x="335" y="95" width="110" height="30" as="geometry" />
        </mxCell>
        <mxCell id="8efc-KcHBeF5qyLbA9xW-66" value="最大记录" style="rounded=1;whiteSpace=wrap;html=1;sketch=1;fillColor=#f5f5f5;strokeColor=#666666;fontColor=#333333;" vertex="1" parent="1">
          <mxGeometry x="335" y="194.5" width="110" height="30" as="geometry" />
        </mxCell>
        <mxCell id="8efc-KcHBeF5qyLbA9xW-67" value="页5" style="text;html=1;strokeColor=none;fillColor=none;align=center;verticalAlign=middle;whiteSpace=wrap;rounded=0;sketch=1;" vertex="1" parent="1">
          <mxGeometry x="370" y="-60" width="40" height="20" as="geometry" />
        </mxCell>
      </root>
    </mxGraphModel>
  </diagram>
</mxfile>
